<svg width="600" height="400" xmlns="http://www.w3.org/2000/svg">
  <!-- Background -->
  <rect width="600" height="400" fill="#f9fafb" rx="10" ry="10"/>
  
  <!-- Profile UI -->
  <rect x="50" y="50" width="500" height="300" fill="white" stroke="#e5e7eb" stroke-width="2" rx="8" ry="8"/>
  
  <!-- Header -->
  <rect x="50" y="50" width="500" height="50" fill="#ffb740" rx="8" ry="8"/>
  <text x="80" y="82" font-family="Arial" font-size="18" fill="white">Candidate Profile</text>
  
  <!-- Profile Section -->
  <rect x="70" y="120" width="120" height="120" fill="#f3f4f6" rx="60" ry="60"/>
  <circle cx="130" cy="180" r="50" fill="#10b981"/>
  <text x="115" y="190" font-family="Arial" font-size="36" fill="white">JD</text>
  
  <text x="210" y="140" font-family="Arial" font-size="20" font-weight="bold" fill="#111827">John Doe</text>
  <text x="210" y="165" font-family="Arial" font-size="14" fill="#374151">Full Stack Developer</text>
  <text x="210" y="190" font-family="Arial" font-size="14" fill="#374151">San Francisco, CA</text>
  
  <!-- Skills Section -->
  <rect x="210" y="210" width="320" height="30" fill="white" stroke="#e5e7eb" stroke-width="1" rx="4" ry="4"/>
  <text x="220" y="230" font-family="Arial" font-size="12" fill="#374151">JavaScript</text>
  <rect x="290" y="217" width="230" height="15" fill="#f3f4f6" rx="10" ry="10"/>
  <rect x="290" y="217" width="190" height="15" fill="#ffb740" rx="10" ry="10"/>
  
  <rect x="210" y="250" width="320" height="30" fill="white" stroke="#e5e7eb" stroke-width="1" rx="4" ry="4"/>
  <text x="220" y="270" font-family="Arial" font-size="12" fill="#374151">React</text>
  <rect x="290" y="257" width="230" height="15" fill="#f3f4f6" rx="10" ry="10"/>
  <rect x="290" y="257" width="200" height="15" fill="#ffb740" rx="10" ry="10"/>
  
  <rect x="210" y="290" width="320" height="30" fill="white" stroke="#e5e7eb" stroke-width="1" rx="4" ry="4"/>
  <text x="220" y="310" font-family="Arial" font-size="12" fill="#374151">Node.js</text>
  <rect x="290" y="297" width="230" height="15" fill="#f3f4f6" rx="10" ry="10"/>
  <rect x="290" y="297" width="170" height="15" fill="#ffb740" rx="10" ry="10"/>
  
  <!-- Mental Health Compatibility -->
  <rect x="70" y="260" width="120" height="70" fill="white" stroke="#e5e7eb" stroke-width="1" rx="4" ry="4"/>
  <text x="80" y="280" font-family="Arial" font-size="12" font-weight="bold" fill="#111827">Mental Health</text>
  <text x="80" y="300" font-family="Arial" font-size="12" fill="#374151">Compatibility</text>
  
  <circle cx="130" cy="300" r="20" fill="none" stroke="#10b981" stroke-width="5" stroke-dasharray="100 125"/>
  <text x="123" y="305" font-family="Arial" font-size="12" font-weight="bold" fill="#10b981">85%</text>
</svg>
